<?xml version="1.0" encoding="UTF-8"?>
<svg width="16px" height="16px" viewBox="0 0 16 16" version="1.1" xmlns="http://www.w3.org/2000/svg" xmlns:xlink="http://www.w3.org/1999/xlink">
    <!-- Generator: Sketch 58 (84663) - https://sketch.com -->
    <title>import</title>
    <desc>Created with Sketch.</desc>
    <g id="import" stroke="none" stroke-width="1" fill="none" fill-rule="evenodd">
        <g id="Group-7" fill="#000000">
            <path d="M14.6720648,10.3643725 L14.6720648,13.9271255 C14.6720648,14.5889728 14.1355315,15.1255061 13.4736842,15.1255061 L2.46153846,15.1255061 C1.79969115,15.1255061 1.26315789,14.5889728 1.26315789,13.9271255 L1.26315789,10.3643725 C1.26315789,10.1318315 1.07464621,9.94331984 0.842105263,9.94331984 C0.609564316,9.94331984 0.421052632,10.1318315 0.421052632,10.3643725 L0.421052632,13.9271255 C0.421052632,15.0540547 1.33460926,15.9676113 2.46153846,15.9676113 L13.4736842,15.9676113 C14.6006134,15.9676113 15.51417,15.0540547 15.51417,13.9271255 L15.51417,10.3643725 C15.51417,10.1318315 15.3256584,9.94331984 15.0931174,9.94331984 C14.8605765,9.94331984 14.6720648,10.1318315 14.6720648,10.3643725 Z" id="Path" fill-rule="nonzero"></path>
            <g id="Group-129" transform="translate(8.127927, 6.507145) scale(1, -1) rotate(-45.000000) translate(-8.127927, -6.507145) translate(3.496348, 2.296619)">
                <path d="M1.38908225,7.82176071 L7.29368059,1.91716237 C7.45811187,1.75273109 7.45811187,1.48613531 7.29368059,1.32170403 C7.12924931,1.15727275 6.86265353,1.15727275 6.69822225,1.32170403 L0.793623905,7.22630237 C0.629192624,7.39073365 0.629192624,7.65732943 0.793623905,7.82176071 C0.958055186,7.98619199 1.22465097,7.98619199 1.38908225,7.82176071 Z" id="Path-16" fill-rule="nonzero"></path>
                <polygon id="Path-25" points="2.13765182 0 8.61538462 0 8.61538462 6.47773279"></polygon>
            </g>
        </g>
    </g>
</svg>