<?xml version="1.0" encoding="UTF-8"?>
<svg width="16px" height="16px" viewBox="0 0 16 16" version="1.1" xmlns="http://www.w3.org/2000/svg" xmlns:xlink="http://www.w3.org/1999/xlink">
    <!-- Generator: Sketch 61.2 (89653) - https://sketch.com -->
    <title>automation</title>
    <desc>Created with Sketch.</desc>
    <g id="automation" stroke="none" stroke-width="1" fill="none" fill-rule="evenodd">
        <g id="Group-203" transform="translate(1.000000, 0.000000)" fill="#000000">
            <polygon id="Path-129" points="11.6645161 0 3.1718332 8.51612903 6.51329662 8.51612903 2.06451613 16 11.0254917 7.22580645 7.44988198 7.22580645"></polygon>
            <path d="M12.4477309,2.69083937 C13.8872696,4.11073395 14.712903,6.04370407 14.712903,8.1064515 C14.712903,12.3073787 11.3073787,15.712903 7.1064515,15.712903 C6.62055158,15.712903 6.14022187,15.6672787 5.66995821,15.5773622 C5.39872928,15.5255021 5.22089574,15.2635866 5.27275589,14.9923577 C5.32461603,14.7211288 5.58653149,14.5432952 5.85776042,14.5951554 C6.26620236,14.6732512 6.68365345,14.712903 7.1064515,14.712903 C10.7550939,14.712903 13.712903,11.7550939 13.712903,8.1064515 C13.712903,6.31406658 12.9964196,4.63663802 11.7454985,3.40278713 C11.5488995,3.20887099 11.5467247,2.89229598 11.7406408,2.69569703 C11.9345569,2.49909809 12.251132,2.49692324 12.4477309,2.69083937 Z M7.1064515,0.5 C7.55735758,0.5 8.003504,0.539289161 8.44131409,0.616826159 C8.71322513,0.664982121 8.89461446,0.924447693 8.8464585,1.19635873 C8.79830254,1.46826978 8.53883696,1.64965911 8.26692592,1.60150315 C7.88662155,1.53415052 7.49882677,1.5 7.1064515,1.5 C3.45780909,1.5 0.5,4.45780909 0.5,8.1064515 C0.5,9.87769062 1.19956469,11.5369718 2.42445672,12.7673664 C2.61928078,12.9630657 2.61857128,13.2796474 2.42287203,13.4744714 C2.22717277,13.6692955 1.91059108,13.668586 1.71576702,13.4728867 C0.306153577,12.0569409 -0.5,10.144844 -0.5,8.1064515 C-0.5,3.90552434 2.90552434,0.5 7.1064515,0.5 Z" id="Shape" fill-rule="nonzero"></path>
        </g>
    </g>
</svg>