<?xml version="1.0" encoding="UTF-8"?>
<svg width="16px" height="12px" viewBox="0 0 16 12" version="1.1" xmlns="http://www.w3.org/2000/svg" xmlns:xlink="http://www.w3.org/1999/xlink">
    <title>playbooks</title>
    <g id="playbooks" stroke="none" stroke-width="1" fill="none" fill-rule="evenodd">
        <path d="M11.0563626,5.64812851 L11.0563626,6.36241422 L5,6.36241422 L5,5.64812851 L11.0563626,5.64812851 Z M10.9496946,1.42323276 L10.9496946,1.99466133 L7.56670602,1.99466133 L7.56670602,9.99969264 L10.9496946,9.99969264 L10.9496946,10.5711212 L7.56670602,10.5711212 C7.27607886,10.5711212 7.03654848,10.3505268 7.00381265,10.0663333 L7,9.99969264 L7,1.99466133 C7,1.70161228 7.2187713,1.46008581 7.50061613,1.42707718 L7.56670602,1.42323276 L10.9496946,1.42323276 Z M4.5,3.85833263 C4.77614237,3.85833263 5,4.08219026 5,4.35833263 L5,7.35833263 C5,7.63447501 4.77614237,7.85833263 4.5,7.85833263 L1.5,7.85833263 C1.22385763,7.85833263 1,7.63447501 1,7.35833263 L1,4.35833263 C1,4.08219026 1.22385763,3.85833263 1.5,3.85833263 L4.5,3.85833263 Z M11.1340024,-1.91176852e-10 L14.2142857,-1.91176852e-10 C14.4904281,-1.91177148e-10 14.7142857,0.223857625 14.7142857,0.5 L14.7142857,2.92857143 C14.7142857,3.2047138 14.4904281,3.42857143 14.2142857,3.42857143 L11.1340024,3.42857143 C10.85786,3.42857143 10.6340024,3.2047138 10.6340024,2.92857143 L10.6340024,0.5 C10.6340024,0.223857625 10.85786,-1.91176801e-10 11.1340024,-1.91176852e-10 Z M11.1340024,4.2351859 L14.2142857,4.2351859 C14.4904281,4.2351859 14.7142857,4.45904352 14.7142857,4.7351859 L14.7142857,7.16375732 C14.7142857,7.4398997 14.4904281,7.66375732 14.2142857,7.66375732 L11.1340024,7.66375732 C10.85786,7.66375732 10.6340024,7.4398997 10.6340024,7.16375732 L10.6340024,4.7351859 C10.6340024,4.45904352 10.85786,4.2351859 11.1340024,4.2351859 Z M11.1340024,8.57687759 L14.2142857,8.57687759 C14.4904281,8.57687759 14.7142857,8.80073522 14.7142857,9.07687759 L14.7142857,11.505449 C14.7142857,11.7815914 14.4904281,12.005449 14.2142857,12.005449 L11.1340024,12.005449 C10.85786,12.005449 10.6340024,11.7815914 10.6340024,11.505449 L10.6340024,9.07687759 C10.6340024,8.80073522 10.85786,8.57687759 11.1340024,8.57687759 Z" id="Combined-Shape" fill="#000000" fill-rule="nonzero"></path>
    </g>
</svg>