<?xml version="1.0" encoding="UTF-8"?>
<svg width="16px" height="16px" viewBox="0 0 16 16" version="1.1" xmlns="http://www.w3.org/2000/svg" xmlns:xlink="http://www.w3.org/1999/xlink">
    <!-- Generator: Sketch 58 (84663) - https://sketch.com -->
    <title>close</title>
    <desc>Created with Sketch.</desc>
    <g id="close" stroke="none" stroke-width="1" fill="none" fill-rule="evenodd">
        <g id="Group-135" transform="translate(8.000000, 8.000000) rotate(-315.000000) translate(-8.000000, -8.000000) translate(1.000000, 1.000000)" fill="#000000" fill-rule="nonzero">
            <path d="M0.777777778,7.58333333 L13.2222222,7.58333333 C13.5443883,7.58333333 13.8055556,7.3221661 13.8055556,7 C13.8055556,6.6778339 13.5443883,6.41666667 13.2222222,6.41666667 L0.777777778,6.41666667 C0.455611674,6.41666667 0.194444444,6.6778339 0.194444444,7 C0.194444444,7.3221661 0.455611674,7.58333333 0.777777778,7.58333333 Z" id="Path-96"></path>
            <path d="M6.41666667,0.777777778 L6.41666667,13.2222222 C6.41666667,13.5443883 6.6778339,13.8055556 7,13.8055556 C7.3221661,13.8055556 7.58333333,13.5443883 7.58333333,13.2222222 L7.58333333,0.777777778 C7.58333333,0.455611674 7.3221661,0.194444444 7,0.194444444 C6.6778339,0.194444444 6.41666667,0.455611674 6.41666667,0.777777778 Z" id="Path-96"></path>
        </g>
    </g>
</svg>